<svg xmlns="http://www.w3.org/2000/svg" xmlns:xlink="http://www.w3.org/1999/xlink" width="500" zoomAndPan="magnify" viewBox="0 0 375 225" height="300" preserveAspectRatio="xMidYMid meet" version="1.0"><defs><clipPath id="8bc7e16b7e"><path d="M 52 39.738281 L 359.765625 39.738281 L 359.765625 185 L 52 185 Z M 52 39.738281 " clip-rule="nonzero"/></clipPath><clipPath id="07a582b9a8"><path d="M 15.515625 39.738281 L 258 39.738281 L 258 148 L 15.515625 148 Z M 15.515625 39.738281 " clip-rule="nonzero"/></clipPath></defs><rect x="-37.5" width="450" fill="#ffffff" y="-22.5" height="270" fill-opacity="1"/><rect x="-37.5" width="450" fill="#ffffff" y="-22.5" height="270" fill-opacity="1"/><g clip-path="url(#8bc7e16b7e)"><path fill="#0d9c90" d="M 220.917969 172.28125 L 266.910156 172.28125 L 266.910156 123.585938 L 220.917969 123.585938 Z M 266.777344 111.742188 L 209.085938 111.742188 L 209.085938 184.125 L 278.738281 184.125 L 278.738281 39.738281 L 266.777344 39.738281 Z M 52.304688 184.125 L 112.519531 184.125 L 112.519531 172.28125 L 64.136719 172.28125 L 64.136719 123.585938 L 112.519531 123.585938 L 112.519531 111.742188 L 52.304688 111.742188 Z M 137.53125 172.28125 L 183.800781 172.28125 L 183.800781 123.585938 L 137.53125 123.585938 Z M 125.703125 184.125 L 195.628906 184.125 L 195.628906 111.742188 L 125.703125 111.742188 Z M 304.027344 139.996094 L 347.242188 139.996094 L 347.242188 123.585938 L 304.027344 123.585938 Z M 304.027344 172.28125 L 304.027344 151.839844 L 359.070312 151.839844 L 359.070312 111.742188 L 292.199219 111.742188 L 292.199219 184.125 L 359.765625 184.125 L 359.765625 172.28125 Z M 304.027344 172.28125 " fill-opacity="1" fill-rule="evenodd"/></g><g clip-path="url(#07a582b9a8)"><path fill="#0d9c90" d="M 240.398438 90.382812 C 240.398438 95.011719 242.753906 97.234375 245.53125 97.234375 C 249.371094 97.234375 251.546875 94.085938 251.546875 88.808594 C 251.546875 85.199219 249.742188 82.511719 246.316406 82.511719 C 242.804688 82.511719 240.398438 85.476562 240.398438 90.382812 Z M 212.089844 68.578125 C 214.867188 66.035156 220.277344 60.015625 220.277344 51.914062 C 220.277344 48.300781 219.167969 45.710938 216.113281 45.710938 C 212.460938 45.710938 212.089844 48.90625 212.089844 58.71875 Z M 186.371094 97.234375 C 190.675781 97.234375 193.402344 86.261719 193.402344 78.394531 C 193.402344 77.421875 194.097656 77.144531 194.882812 77.144531 C 198.675781 77.144531 202.566406 75.523438 206.355469 72.882812 L 206.355469 59.691406 C 206.355469 44.554688 209.5 39.972656 216.023438 39.972656 C 222.40625 39.972656 226.015625 44.136719 226.015625 52.050781 C 226.015625 62.703125 215.886719 72.605469 212.089844 75.941406 L 212.089844 80.335938 C 213.804688 78.765625 216.578125 76.773438 219.769531 76.773438 C 224.625 76.773438 226.800781 79.457031 226.800781 88.253906 C 226.800781 95.570312 227.585938 97.234375 230.222656 97.234375 C 232.117188 97.234375 233.691406 95.660156 234.9375 93.71875 C 234.753906 92.699219 234.664062 91.632812 234.664062 90.523438 C 234.664062 83.53125 239.191406 76.773438 246.640625 76.773438 C 253.347656 76.773438 257.277344 81.542969 257.277344 88.578125 C 257.277344 96.171875 252.003906 102.976562 245.300781 102.976562 C 241.695312 102.976562 238.824219 101.402344 236.972656 98.765625 C 235.03125 100.9375 232.441406 102.976562 229.207031 102.976562 C 223.46875 102.976562 221.066406 99.316406 221.066406 89.6875 C 221.066406 84.039062 220.324219 82.511719 218.613281 82.511719 C 216.625 82.511719 213.847656 85.382812 212.089844 87.375 L 212.089844 100.195312 C 212.089844 102.046875 210.933594 102.835938 209.222656 102.835938 C 207.511719 102.835938 206.355469 102.046875 206.355469 100.195312 L 206.355469 79.734375 C 204.226562 81.171875 201.453125 82.46875 198.953125 82.789062 C 197.84375 93.808594 192.203125 102.976562 185.910156 102.976562 C 181.84375 102.976562 179.714844 99.410156 178.652344 96.261719 C 177.308594 99.410156 174.996094 102.976562 171.480469 102.976562 C 161.628906 102.976562 162.832031 84.226562 161.167969 84.226562 C 159.730469 84.226562 155.941406 91.449219 155.941406 91.449219 C 155.339844 92.605469 153.808594 92.835938 152.5625 92.234375 C 151.453125 91.679688 150.804688 90.660156 151.222656 89.503906 C 151.222656 89.503906 157.835938 76.726562 162.648438 76.726562 C 168.242188 76.726562 166.53125 97.234375 171.480469 97.234375 C 174.488281 97.234375 176.613281 90.011719 176.613281 80.011719 C 176.613281 78.164062 177.726562 76.726562 179.4375 76.726562 C 181.148438 76.726562 182.351562 78.164062 182.351562 80.011719 C 182.351562 89.964844 182.722656 97.234375 186.371094 97.234375 Z M 103.859375 79.96875 C 106.867188 75.382812 113.0625 64.78125 113.0625 54.691406 C 113.0625 47.839844 111.628906 45.480469 108.714844 45.480469 C 105.292969 45.480469 103.675781 48.488281 103.675781 66.867188 C 103.675781 71.820312 103.71875 76.171875 103.859375 79.96875 Z M 59.132812 65.710938 C 59.132812 67.699219 57.234375 69.828125 54.96875 69.828125 C 52.609375 69.828125 51.175781 68.070312 51.175781 65.894531 C 51.175781 63.8125 53.121094 62.238281 55.570312 62.238281 C 57.699219 62.238281 59.132812 63.8125 59.132812 65.710938 Z M 29.113281 141.628906 C 32.492188 141.628906 34.199219 138.484375 34.199219 128.714844 L 34.199219 113.300781 C 30.917969 117.511719 24.488281 126.773438 24.394531 134.5 C 24.394531 139.546875 25.96875 141.628906 29.113281 141.628906 Z M 27.496094 97.234375 C 30.132812 97.234375 32.535156 96.171875 34.199219 93.992188 L 34.199219 85.9375 C 32.535156 83.441406 29.992188 82.511719 27.863281 82.511719 C 23.65625 82.511719 21.253906 85.476562 21.253906 89.964844 C 21.253906 94.734375 23.65625 97.234375 27.496094 97.234375 Z M 34.199219 79.273438 C 34.292969 77.515625 35.402344 76.773438 37.070312 76.773438 C 38.78125 76.773438 39.9375 77.558594 39.9375 79.410156 L 39.9375 98.578125 C 43.5 93.949219 49.601562 86.03125 51.871094 79.550781 C 52.519531 77.699219 52.980469 76.773438 54.695312 76.773438 C 56.402344 76.773438 57.605469 77.929688 57.605469 79.78125 L 57.605469 91.726562 C 57.605469 96.585938 58.714844 97.234375 60.703125 97.234375 C 64.636719 97.234375 67.828125 87.699219 68.613281 80.382812 C 68.84375 78.023438 70.417969 76.679688 72.035156 76.773438 L 81.609375 77.421875 C 84.664062 77.605469 86.421875 79.136719 86.421875 82.46875 L 86.421875 88.394531 C 86.421875 95.335938 87.53125 97.234375 90.121094 97.234375 C 92.804688 97.234375 95.535156 93.761719 98.816406 87.1875 C 98.214844 81.679688 97.9375 74.320312 97.9375 64.460938 C 97.9375 45.480469 102.101562 39.738281 108.625 39.738281 C 115.097656 39.738281 118.796875 45.753906 118.796875 53.765625 C 118.796875 68.070312 106.773438 84.828125 104.460938 87.976562 C 105.199219 94.042969 106.636719 97.234375 109.363281 97.234375 C 113.109375 97.234375 118.9375 86.863281 122.589844 80.617188 C 124.578125 77.191406 125.042969 76.773438 126.109375 76.773438 C 133.277344 76.773438 139.9375 82.929688 139.9375 90.382812 C 139.9375 97.792969 133.785156 104.691406 124.300781 102.976562 C 122.496094 102.652344 120.972656 101.449219 121.019531 99.644531 C 121.066406 97.882812 122.777344 96.910156 124.996094 97.234375 C 131.5625 98.207031 134.199219 94.503906 134.199219 90.753906 C 134.199219 86.542969 131.609375 83.625 127.308594 82.789062 C 117.273438 100.335938 113.804688 102.976562 108.855469 102.976562 C 104.785156 102.976562 101.917969 101.726562 100.113281 95.011719 C 97.429688 99.457031 94.007812 102.976562 89.519531 102.976562 C 84.246094 102.976562 80.683594 98.253906 80.683594 89.6875 L 80.683594 83.070312 L 74.023438 82.652344 C 72.59375 92.5625 66.761719 102.976562 60.289062 102.976562 C 55.199219 102.976562 51.960938 99.828125 51.824219 90.847656 C 48.355469 96.449219 44.007812 101.261719 39.9375 106.679688 L 39.9375 127.695312 C 39.9375 140.984375 34.988281 147.371094 28.835938 147.371094 C 23.425781 147.371094 18.660156 143.15625 18.660156 135.289062 C 18.660156 123.808594 29.34375 111.445312 34.199219 105.011719 L 34.199219 100.246094 C 32.398438 101.773438 29.902344 102.976562 26.847656 102.976562 C 21.019531 102.976562 15.515625 97.792969 15.515625 90.199219 C 15.515625 83.347656 20.972656 76.773438 27.769531 76.773438 C 30.457031 76.773438 32.628906 77.835938 34.199219 79.273438 Z M 34.199219 79.273438 " fill-opacity="1" fill-rule="evenodd"/></g></svg>
